# xmcd
#
# Track frame offsets:
#	150
#	14293
#	29268
#	42713
#	57690
#	74275
#	86283
#	99018
#	114360
#	128138
#	144715
#	161163
#	177008
#	188810
#	201870
#	219095
#	233865
#	249240
#	260538
#	284755
#
# Disc length: 4049 seconds
#
# Revision: 1
# Processed by: cddbd v1.5.1PL0 Copyright (c) Steve Scherf et al.
# Submitted via: audiograbber 1.83.01
#
DISCID=1e0fcf14
DTITLE=Ella Fitzgerald - Night and Day
DYEAR=1996
DGENRE=Soul
TTITLE0=Night and Day
TTITLE1=All The Things You Are
TTITLE2=Let's Face The Music And Dance
TTITLE3=All Through The Night
TTITLE4=Spring Is Here
TTITLE5=I Wish I Were In Love Again
TTITLE6=There's A Small Hotel
TTITLE7=Everything I've Got
TTITLE8=Isn't It Romantic
TTITLE9=Begin The Bequine
TTITLE10=A Fine Romance
TTITLE11=Remember
TTITLE12=Top Hat, White Tie And Tails
TTITLE13=Yesterdays
TTITLE14=Cheek To Cheek
TTITLE15=You Couldn't Be Cuter
TTITLE16=Ridin' High
TTITLE17=All By Myself
TTITLE18=Sophisticated Lady
TTITLE19=It Don't Mean A Thing
EXTD=
EXTT0=
EXTT1=
EXTT2=
EXTT3=
EXTT4=
EXTT5=
EXTT6=
EXTT7=
EXTT8=
EXTT9=
EXTT10=
EXTT11=
EXTT12=
EXTT13=
EXTT14=
EXTT15=
EXTT16=
EXTT17=
EXTT18=
EXTT19=
PLAYORDER=
